Coordinates
version=1
nRows=32
nColumns=22
inDegrees=yes

Units are S.I. units (second, meters, Newtons, ...)
If the header above contains a line with 'inDegrees', this indicates whether rotational values are in degrees (yes) or radians (no).

endheader
time	pelvis_tilt	pelvis_list	pelvis_rotation	pelvis_tx	pelvis_ty	pelvis_tz	hip_flexion_r	hip_adduction_r	hip_rotation_r	knee_angle_r	ankle_angle_r	subtalar_angle_r	hip_flexion_l	hip_adduction_l	hip_rotation_l	knee_angle_l	ankle_angle_l	subtalar_angle_l	lumbar_extension	lumbar_bending	lumbar_rotation
      0.01000000	     -1.04932916	     -4.74074729	     -3.40088075	     -1.39639695	      1.01338900	     -0.62598904	      0.62276716	      4.13143885	     -2.46830589	     -8.95983906	      8.23369406	     -2.83202315	     -2.02981084	     -5.24633142	    -14.34109439	     -8.05058383	     11.98191342	     -1.74877084	     -3.60693502	      0.87979269	     -1.71173806
      0.02000000	     -1.05078986	     -4.75359170	     -3.42934033	     -1.39644429	      1.01340171	     -0.62586133	      0.61752127	      4.15138066	     -2.44014850	     -8.94417295	      8.22876935	     -2.85322083	     -2.02624363	     -5.26438921	    -14.36575255	     -8.05915515	     11.97005332	     -1.74311638	     -3.63380344	      0.90108596	     -1.73856860
      0.03000000	     -1.05319229	     -4.76251382	     -3.47589052	     -1.39650796	      1.01341434	     -0.62568306	      0.61196598	      4.16927734	     -2.39313950	     -8.92071062	      8.20414969	     -2.87326490	     -2.01766124	     -5.28158600	    -14.42021982	     -8.08121920	     11.97443269	     -1.74620424	     -3.66683830	      0.91335037	     -1.73589120
      0.04000000	     -1.06324644	     -4.76052541	     -3.50810766	     -1.39655397	      1.01341262	     -0.62553477	      0.61942166	      4.17334609	     -2.39659988	     -8.90732504	      8.20487606	     -2.87394203	     -2.01096286	     -5.28259419	    -14.42002443	     -8.07905405	     11.97463783	     -1.74650114	     -3.68955701	      0.91402656	     -1.74515589
      0.05000000	     -1.07020792	     -4.77869529	     -3.58435134	     -1.39661329	      1.01342282	     -0.62530798	      0.61460528	      4.20310438	     -2.29777501	     -8.87966678	      8.17833939	     -2.88824265	     -1.99990036	     -5.31123965	    -14.52665186	     -8.10856938	     11.97633896	     -1.76456649	     -3.71966956	      0.93915945	     -1.72235834
      0.06000000	     -1.07825963	     -4.78061641	     -3.62671467	     -1.39667694	      1.01342605	     -0.62514564	      0.62336621	      4.21248953	     -2.26412680	     -8.87378441	      8.16842239	     -2.89177344	     -1.99213195	     -5.31781739	    -14.55610474	     -8.11385512	     11.97558057	     -1.77048618	     -3.75043645	      0.94640381	     -1.74139341
      0.07000000	     -1.08906322	     -4.77877620	     -3.65852965	     -1.39672239	      1.01342211	     -0.62500588	      0.63057113	      4.21661231	     -2.26730694	     -8.85859985	      8.16916572	     -2.89195883	     -1.98419443	     -5.31903605	    -14.55663084	     -8.11277121	     11.97518230	     -1.77110628	     -3.77396429	      0.94668346	     -1.74879100
      0.08000000	     -1.10220593	     -4.79914202	     -3.73861330	     -1.39676721	      1.01342528	     -0.62478111	      0.62714879	      4.24951564	     -2.15939912	     -8.82225727	      8.13421417	     -2.89814507	     -1.96822783	     -5.35122604	    -14.67363990	     -8.14328230	     11.97606297	     -1.79379142	     -3.79518655	      0.97172516	     -1.70630841
      0.09000000	     -1.11278352	     -4.79718890	     -3.76476139	     -1.39680941	      1.01342130	     -0.62466369	      0.63465374	      4.25318799	     -2.16217477	     -8.81015523	      8.13474875	     -2.89830956	     -1.96037546	     -5.35184845	    -14.67334949	     -8.13992808	     11.97603272	     -1.79405965	     -3.81825799	      0.97139028	     -1.71464157
      0.10000000	     -1.12672894	     -4.80496099	     -3.81219901	     -1.39686082	      1.01341994	     -0.62450874	      0.63854153	      4.27010833	     -2.09156050	     -8.78508606	      8.11000123	     -2.90131968	     -1.94087163	     -5.36852395	    -14.74223642	     -8.16063787	     11.96597118	     -1.80271025	     -3.83761980	      0.98397190	     -1.71852527
      0.11000000	     -1.13735736	     -4.80368174	     -3.83595773	     -1.39689176	      1.01341506	     -0.62441021	      0.64489904	      4.27362087	     -2.09578779	     -8.77183509	      8.11028508	     -2.90147479	     -1.93385565	     -5.36917265	    -14.74209601	     -8.15711406	     11.96669875	     -1.80296168	     -3.85662949	      0.98406205	     -1.72044342
      0.12000000	     -1.16414131	     -4.81510470	     -3.88686754	     -1.39688813	      1.01339743	     -0.62426093	      0.64872422	      4.29457759	     -2.04671430	     -8.72407432	      8.07838422	     -2.90348761	     -1.91314104	     -5.38804377	    -14.80881364	     -8.16210477	     11.96651369	     -1.80932289	     -3.84902321	      0.99651721	     -1.67066319
      0.13000000	     -1.17350066	     -4.81374237	     -3.90501114	     -1.39691630	      1.01339522	     -0.62418130	      0.65552878	      4.29730694	     -2.04745347	     -8.71523298	      8.07784353	     -2.90362555	     -1.90661207	     -5.38842433	    -14.80967839	     -8.15864230	     11.96689817	     -1.80935483	     -3.86687514	      0.99730916	     -1.67558056
      0.14000000	     -1.20467214	     -4.82276211	     -3.94764739	     -1.39691187	      1.01337373	     -0.62405947	      0.66758464	      4.31510829	     -1.98780531	     -8.67534936	      8.03971933	     -2.90440622	     -1.87954907	     -5.40434913	    -14.87614753	     -8.16300720	     11.96141544	     -1.81150908	     -3.85121919	      1.01134595	     -1.65137838
      0.15000000	     -1.21390575	     -4.82175677	     -3.95941991	     -1.39693089	      1.01337457	     -0.62399761	      0.67330204	      4.31754034	     -1.98984400	     -8.66681472	      8.03978977	     -2.90450337	     -1.87251912	     -5.40496613	    -14.87644993	     -8.15882924	     11.96204088	     -1.81142588	     -3.86701757	      1.01112115	     -1.65157451
      0.16000000	     -1.24063247	     -4.82490908	     -3.98333364	     -1.39690521	      1.01335382	     -0.62392386	      0.68080262	      4.32588254	     -1.97661179	     -8.62836505	      8.02255546	     -2.90353691	     -1.85099881	     -5.41117958	    -14.90322500	     -8.15738922	     11.96005111	     -1.81155958	     -3.85210088	      1.01808170	     -1.61931063
      0.17000000	     -1.25035958	     -4.82409613	     -3.99081614	     -1.39691251	      1.01335287	     -0.62387742	      0.68686723	      4.32741257	     -1.97617508	     -8.62031968	      8.02141683	     -2.90330567	     -1.84400290	     -5.41166896	    -14.90572299	     -8.15249659	     11.96018723	     -1.81156915	     -3.86598371	      1.01861731	     -1.62057279
      0.18000000	     -1.28574432	     -4.82692276	     -4.01009009	     -1.39687331	      1.01332419	     -0.62380799	      0.69837741	      4.33608778	     -1.94969452	     -8.57454773	      7.99350501	     -2.89711541	     -1.81273654	     -5.41910729	    -14.94353876	     -8.14947331	     11.95284001	     -1.81353605	     -3.83951522	      1.02334367	     -1.60017098
      0.19000000	     -1.29576299	     -4.82560988	     -4.01539534	     -1.39686889	      1.01332197	     -0.62379290	      0.70413448	      4.33474403	     -1.94948482	     -8.56680915	      7.99272418	     -2.89664131	     -1.80488581	     -5.41686392	    -14.94520567	     -8.14562179	     11.95294908	     -1.81368057	     -3.85381503	      1.02900611	     -1.59906789
      0.20000000	     -1.32788138	     -4.82525072	     -4.02679621	     -1.39682235	      1.01329324	     -0.62376482	      0.71267402	      4.33646310	     -1.93503202	     -8.52255933	      7.97414173	     -2.88632533	     -1.77221464	     -5.41930238	    -14.96811919	     -8.15062556	     11.94767830	     -1.81835542	     -3.83418033	      1.03468428	     -1.57463745
      0.21000000	     -1.33927715	     -4.82435811	     -4.03002444	     -1.39680533	      1.01328747	     -0.62375601	      0.71862091	      4.33500786	     -1.93458911	     -8.51456622	      7.97341842	     -2.88521692	     -1.76349407	     -5.41741974	    -14.97034867	     -8.14560596	     11.94801438	     -1.81885363	     -3.84979864	      1.03902718	     -1.57421206
      0.22000000	     -1.39028803	     -4.82554803	     -4.04440157	     -1.39677408	      1.01323248	     -0.62373819	      0.75176872	      4.33817660	     -1.89604198	     -8.47870973	      7.93972636	     -2.84382167	     -1.70290774	     -5.42396577	    -15.00415531	     -8.16401260	     11.94777681	     -1.83849866	     -3.81566370	      1.05024806	     -1.55947923
      0.23000000	     -1.40760101	     -4.82336968	     -4.04363573	     -1.39672172	      1.01321470	     -0.62375634	      0.75284646	      4.33338037	     -1.90448098	     -8.45255373	      7.94572655	     -2.83605166	     -1.68533455	     -5.42076516	    -15.00634869	     -8.16667167	     11.94865332	     -1.84225495	     -3.82312502	      1.05557586	     -1.54244760
      0.24000000	     -1.42095489	     -4.82225581	     -4.04491626	     -1.39668201	      1.01320215	     -0.62377349	      0.75717643	      4.32891274	     -1.90629592	     -8.44012244	      7.94662774	     -2.83389593	     -1.67478834	     -5.41763935	    -15.00795781	     -8.16229417	     11.94917373	     -1.84310734	     -3.84129745	      1.06107597	     -1.53984744
      0.25000000	     -1.44410149	     -4.81555504	     -4.03869317	     -1.39659619	      1.01317692	     -0.62382444	      0.74867148	      4.31685509	     -1.91231848	     -8.38703649	      7.94554005	     -2.81386260	     -1.64362086	     -5.41065096	    -15.01303694	     -8.18021008	     11.94920584	     -1.85080677	     -3.83900121	      1.06263828	     -1.51919804
      0.26000000	     -1.47127385	     -4.80921644	     -4.03206864	     -1.39652906	      1.01314829	     -0.62387227	      0.74858225	      4.30570232	     -1.91059985	     -8.33979724	      7.93596080	     -2.77490595	     -1.60584603	     -5.40513816	    -15.01807013	     -8.20004520	     11.95234545	     -1.86422837	     -3.83788231	      1.06198558	     -1.51327761
      0.27000000	     -1.48543033	     -4.80917854	     -4.03216079	     -1.39647636	      1.01313569	     -0.62392327	      0.75314207	      4.29922198	     -1.91217780	     -8.32873080	      7.93641972	     -2.77091663	     -1.59451255	     -5.40175273	    -15.01894785	     -8.19539562	     11.95304693	     -1.86540827	     -3.85739940	      1.06922407	     -1.51061068
      0.28000000	     -1.54184785	     -4.80854871	     -4.01386055	     -1.39640997	      1.01306818	     -0.62402248	      0.78364039	      4.29140701	     -1.92687938	     -8.28185964	      7.93057141	     -2.57931027	     -1.51265809	     -5.40494022	    -15.00190501	     -8.23651588	     11.96213955	     -1.92086783	     -3.82064571	      1.07857000	     -1.50948578
      0.29000000	     -1.55782284	     -4.80305560	     -4.00662838	     -1.39632513	      1.01305627	     -0.62412194	      0.77357265	      4.27641033	     -1.93556167	     -8.24187916	      7.93676788	     -2.56993460	     -1.49165139	     -5.39533020	    -15.00205419	     -8.24825091	     11.96070719	     -1.92364965	     -3.83099586	      1.07959887	     -1.49425545
      0.30000000	     -1.57660369	     -4.79526151	     -3.99436594	     -1.39624208	      1.01304051	     -0.62423696	      0.76299367	      4.25900281	     -1.94506087	     -8.19372281	      7.93545157	     -2.55027422	     -1.46338193	     -5.38390764	    -14.99778498	     -8.26567174	     11.96037913	     -1.92855365	     -3.83794671	      1.07548434	     -1.48497505
      0.31000000	     -1.60710925	     -4.78355087	     -3.96758692	     -1.39617560	      1.01301320	     -0.62439050	      0.76632238	      4.23658061	     -1.96165696	     -8.14674346	      7.91825748	     -2.47290820	     -1.41641500	     -5.36817991	    -14.97424332	     -8.28595064	     11.96303343	     -1.94601175	     -3.83374692	      1.06911445	     -1.51404156
      0.32000000	     -1.62605307	     -4.78229568	     -3.95842507	     -1.39609721	      1.01299910	     -0.62454008	      0.76073615	      4.22413467	     -1.97933105	     -8.10769173	      7.92467977	     -2.45656579	     -1.39214926	     -5.36041824	    -14.96519199	     -8.29737135	     11.96033185	     -1.94983084	     -3.84245231	      1.07260859	     -1.49004969
